<?xml version="1.0" standalone="no"?><!DOCTYPE svg PUBLIC "-//W3C//DTD SVG 1.1//EN" "http://www.w3.org/Graphics/SVG/1.1/DTD/svg11.dtd"><svg t="1692170269155" class="icon" viewBox="0 0 1024 1024" version="1.1" xmlns="http://www.w3.org/2000/svg" p-id="2342" xmlns:xlink="http://www.w3.org/1999/xlink" width="200" height="200"><path d="M154.872283 771.063921a154.194465 154.194465 0 0 0-49.187613-113.342183c-0.054958-0.054958-0.073278-0.128236-0.128236-0.164874a173.191692 173.191692 0 0 0-42.281196 113.507057c0 43.416999 15.992844 83.023561 42.281196 113.507058l0.109917-0.164875a154.212784 154.212784 0 0 0 49.205932-113.342183z" fill="#E6E6E6" p-id="2343"></path><path d="M342.371433 632.55087c-29.219457-22.203124-65.546845-35.521334-105.06181-35.521334s-75.842353 13.31821-105.06181 35.521334c38.177648 36.675457 59.263288 85.734834 59.263288 138.513051 0 52.759898-21.08564 101.837594-59.263288 138.513051 29.219457 22.203124 65.546845 35.521334 105.06181 35.521334s75.842353-13.31821 105.06181-35.521334c-38.177648-36.675457-59.263288-85.753153-59.263288-138.513051 0-52.778217 21.08564-101.837594 59.263288-138.513051z" fill="#E6E6E6" p-id="2344"></path><path d="M319.746963 771.063921c0 43.252124 17.476716 83.518185 49.187613 113.342183l0.109917 0.164875a173.191692 173.191692 0 0 0 42.281195-113.507058c0-43.416999-15.992844-83.023561-42.281195-113.507057-0.054958 0.054958-0.073278 0.128236-0.128236 0.164874a154.176145 154.176145 0 0 0-49.169294 113.342183z" fill="#E6E6E6" p-id="2345"></path><path d="M132.247813 632.55087a174.18094 174.18094 0 0 0-26.673059 25.005994c0.054958 0.054958 0.073278 0.128236 0.128235 0.164874a154.194465 154.194465 0 0 1 49.187613 113.342183 154.231104 154.231104 0 0 1-49.187613 113.342183l-0.109916 0.164875c7.987262 9.251302 16.945453 17.604952 26.691379 25.005993 38.177648-36.675457 59.263288-85.753153 59.263288-138.513051-0.036639-52.778217-21.122278-101.837594-59.299927-138.513051zM369.044493 884.570979l-0.109917-0.164875a154.231104 154.231104 0 0 1-49.187613-113.342183c0-43.270444 17.476716-83.518185 49.187613-113.342183 0.054958-0.054958 0.073278-0.128236 0.128236-0.164874a175.902964 175.902964 0 0 0-26.673059-25.005994c-38.177648 36.675457-59.263288 85.734834-59.263288 138.513051 0 52.759898 21.08564 101.837594 59.263288 138.513051a174.913716 174.913716 0 0 0 26.65474-25.005993z" fill="#E64C3C" p-id="2346"></path><path d="M1002.639569 904.337621l-103.632896 103.632896a55.123101 55.123101 0 0 1-77.729252 0 55.123101 55.123101 0 0 1 0-77.729252l103.632896-103.632896a55.123101 55.123101 0 0 1 77.729252 0 55.123101 55.123101 0 0 1 0 77.729252z" fill="#CBB292" p-id="2347"></path><path d="M905.968048 846.484928L234.61667 54.884949C198.325921 12.09081 141.02281-9.59937 86.632485 4.085228 68.001646 8.774997 50.946276 17.220244 36.986887 30.849885 13.281571 54.005617 4.323381 86.339374 5.422545 122.941553c1.282359 42.519348 21.69018 82.290785 54.188812 109.73326l791.398465 668.768341 54.958226-54.958226z" fill="#CBB292" p-id="2348"></path><path d="M482.496592 590.031522l368.51323 311.411632 54.958226-54.958226-312.016172-367.90869z" fill="#38454F" p-id="2349"></path></svg>