<?xml version="1.0" standalone="no"?><!DOCTYPE svg PUBLIC "-//W3C//DTD SVG 1.1//EN" "http://www.w3.org/Graphics/SVG/1.1/DTD/svg11.dtd"><svg t="1692170292496" class="icon" viewBox="0 0 1024 1024" version="1.1" xmlns="http://www.w3.org/2000/svg" p-id="2502" xmlns:xlink="http://www.w3.org/1999/xlink" width="200" height="200"><path d="M844.226206 37.705897C809.675137 12.087173 766.932917 0 723.943633 0H418.305406c-7.373936 0-14.671851 0.855224-21.798722 2.717713-36.166493 9.521499-140.826966 47.816551-140.826966 172.071167L303.00214 703.184579s61.310093 39.150277 171.044898 57.014966l0.11403-104.717487c0-60.948999 55.361532-105.610722 116.481575-104.318383 61.405118 1.292339 111.464258 56.881931 111.464258 118.287049v90.729816c113.782867-17.579614 171.044898-57.014966 171.044898-57.014966l38.009977-528.395699c0-68.817064-32.137436-111.274208-66.93557-137.063978z" fill="#E64C3C" p-id="2503"></path><path d="M702.106901 760.199545v247.064852c100.935495-16.971455 152.039909-57.014966 152.039909-57.014966V713.998418c-25.33365 12.980407-76.00095 34.456044-152.039909 46.201127zM322.007129 950.249431s60.758949 37.743907 152.039909 57.014966V760.199545c-74.157466-12.068168-126.079095-33.82888-152.039909-46.695257V950.249431z" fill="#38454F" p-id="2504"></path><path d="M816.136833 304.079818a19.004989 19.004989 0 0 1-19.004989-19.004989c0-94.321759-76.742144-171.044898-171.044897-171.044897a19.004989 19.004989 0 1 1 0-38.009978c115.265256 0 209.054875 93.789619 209.054875 209.054875a19.004989 19.004989 0 0 1-19.004989 19.004989z" fill="#ED7161" p-id="2505"></path><path d="M112.952254 317.402315v145.445178c0 14.576826 5.340402 28.640518 15.032946 39.549381L303.00214 703.184579l-40.87973-456.290772c-43.673464-2.793733-153.047173-4.276122-149.170156 70.508508z" fill="#C03A2B" p-id="2506"></path><path d="M474.161068 655.482058c0-60.093774 53.822128-104.337388 113.915901-104.337388s114.029932 46.429187 114.029932 106.522961V1007.264397c-94.682853 21.855737-138.831442 22.767976-228.059863 0l0.11403-351.782339z" fill="#E6E7E8" p-id="2507"></path><path d="M614.950023 703.184579l43.578439-43.578439a18.985984 18.985984 0 1 0-26.873054-26.873054l-43.578439 43.578439-43.578438-43.578439a18.985984 18.985984 0 1 0-26.873054 26.873054L561.203916 703.184579l-43.578439 43.578439a18.985984 18.985984 0 1 0 26.873054 26.873054l43.578438-43.578439 43.578439 43.578439a18.947974 18.947974 0 0 0 26.873054 0 18.985984 18.985984 0 0 0 0-26.873054L614.950023 703.184579zM658.528462 822.782972a18.985984 18.985984 0 0 0-26.873054 0l-43.578439 43.578439-43.578438-43.578439a18.985984 18.985984 0 1 0-26.873054 26.873054L561.203916 893.234465l-43.578439 43.578439a18.985984 18.985984 0 1 0 26.873054 26.873054l43.578438-43.578439 43.578439 43.578439a18.947974 18.947974 0 0 0 26.873054 0 18.985984 18.985984 0 0 0 0-26.873054L614.950023 893.234465l43.578439-43.578439a19.004989 19.004989 0 0 0 0-26.873054z" fill="#556080" p-id="2508"></path></svg>