<?xml version="1.0" standalone="no"?><!DOCTYPE svg PUBLIC "-//W3C//DTD SVG 1.1//EN" "http://www.w3.org/Graphics/SVG/1.1/DTD/svg11.dtd"><svg t="1692155237145" class="icon" viewBox="0 0 1024 1024" version="1.1" xmlns="http://www.w3.org/2000/svg" p-id="6011" xmlns:xlink="http://www.w3.org/1999/xlink" width="200" height="200"><path d="M512 512m-448 0a448 448 0 1 0 896 0 448 448 0 1 0-896 0Z" fill="#e6e6e6" p-id="6012" data-spm-anchor-id="a313x.collections_detail.0.i11.231e3a818kyusd" class="selected"></path><path d="M714.666667 599.466667c-12.8 136.533333-119.466667 172.8-198.4 172.8-66.133333 0-204.8-34.133333-204.8-238.933334v-32c0-185.6 117.333333-238.933333 206.933333-238.933333 181.333333 0 196.266667 149.333333 198.4 174.933333h-102.4c-6.4-76.8-46.933333-91.733333-96-91.733333-34.133333 0-102.4 10.666667-102.4 153.6V533.333333c-2.133333 160 81.066667 153.6 100.266667 153.6 91.733333 0 91.733333-61.866667 98.133333-87.466666h100.266667z" fill="#E1BEE7" p-id="6013"></path></svg>