<?xml version="1.0" standalone="no"?><!DOCTYPE svg PUBLIC "-//W3C//DTD SVG 1.1//EN" "http://www.w3.org/Graphics/SVG/1.1/DTD/svg11.dtd"><svg t="1692170166545" class="icon" viewBox="0 0 1024 1024" version="1.1" xmlns="http://www.w3.org/2000/svg" p-id="2015" xmlns:xlink="http://www.w3.org/1999/xlink" width="200" height="200"><path d="M889.388912 550.337123c35.354947 9.000421 75.308912 24.54007 113.502316 51.16407 13.204211 9.198035 21.108772 24.917333 21.108772 41.570807v106.046877c0 18.162526-9.323789 34.833965-24.468211 43.618807-20.300351 11.749053-49.996351 28.959439-88.297543 42.181614-83.213474 28.725895-174.026105 13.27607-246.442667-38.480842A611.669333 611.669333 0 0 1 592.842105 735.645193v-82.117614s15.28814-37.331088 79.997755-74.213053a291.857965 291.857965 0 0 1 216.549052-28.977403zM134.611088 550.337123c-35.354947 9.000421-75.308912 24.54007-113.502316 51.16407C7.904561 610.699228 0 626.418526 0 643.072v106.046877c0 18.162526 9.323789 34.833965 24.468211 43.618807 20.300351 11.749053 49.996351 28.959439 88.297543 42.181614 83.213474 28.725895 174.026105 13.27607 246.442667-38.480842A611.669333 611.669333 0 0 0 431.157895 735.645193v-82.117614s-15.28814-37.331088-79.997755-74.213053a291.857965 291.857965 0 0 0-216.549052-28.977403z" fill="#38454F" p-id="2016"></path><path d="M592.842105 689.205895a162.905825 98.411789 0 1 0 325.811649 0 162.905825 98.411789 0 1 0-325.811649 0Z" fill="#18E5EF" p-id="2017"></path><path d="M105.346246 689.205895a162.905825 98.411789 0 1 0 325.811649 0 162.905825 98.411789 0 1 0-325.811649 0Z" fill="#18E5EF" p-id="2018"></path><path d="M749.352421 204.476632l-36.396912-7.742878a1014.999579 1014.999579 0 0 0-419.87593 0l-36.396912 7.742878c-13.635368 2.910316-23.138807 12.773053-23.138807 24.037052v117.077334c0 16.34807 22.689684 21.360281 42.487017 17.156491l20.318316-4.329544c7.09614-1.509053 14.282105-2.604912 21.414175-3.970246 28.672-36.217263 104.681544-62.158596 194.218667-62.158596 91.603088 0 169.139649 27.127018 196.230737 64.637754 2.658807 0.538947 5.353544 0.916211 8.012351 1.491088l20.336281 4.329544c19.797333 4.203789 35.929825-0.808421 35.929824-17.156491V228.513684c0-11.264-9.503439-21.126737-23.138807-24.037052z" fill="#38454F" p-id="2019"></path><path d="M6.664982 617.903158c3.575018-6.449404 8.371649-12.162246 14.461755-16.401965a335.818105 335.818105 0 0 1 73.027368-38.355088c1.149754-37.079579 2.586947-46.223719 3.161825-48.702877 12.395789-63.613754 40.474947-111.382456 85.818386-146.036772 13.545544-10.365754 31.528421-16.150456 50.589193-16.34807 0.431158 0 0.790456-0.215579 1.203649-0.251509a15.234246 15.234246 0 0 1-1.383298-6.215859V242.526316a18.144561 18.144561 0 0 0-6.269755 1.131789C76.476632 299.816421 0 418.941754 0 597.692632c0 1.473123 0.215579 6.736842 0.215579 6.736842 0.089825 5.299649 2.515088 10.16814 6.449403 13.473684zM840.937544 368.56814c45.361404 34.78007 73.458526 82.494877 85.854316 145.893053 0.251509 1.221614 0.610807 2.425263 1.095859 3.575018 0.574877 2.479158 1.97614 12.144281 3.21572 45.559017a336.82414 336.82414 0 0 1 71.805754 37.905965c6.090105 4.239719 10.868772 9.952561 14.461754 16.401965a17.964912 17.964912 0 0 0 6.449404-13.455719s0.215579-5.263719 0.215579-6.736843c0-188.433965-80.446877-306.373614-245.903719-360.519859a17.749333 17.749333 0 0 0-5.605053-0.898246v109.298527c0 0.341333-0.107789 0.592842-0.125754 0.91621 0.503018 0.03593 0.95214 0.287439 1.455157 0.287439 24.935298 0 48.756772 7.724912 67.080983 21.773473z" fill="#556080" p-id="2020"></path><path d="M425.03186 741.429895h173.954245c-2.048-1.958175-4.06007-3.754667-6.126035-5.784702v-82.117614s0.287439-0.700632 0.916211-1.922246h-163.498667c0.592842 1.221614 0.880281 1.904281 0.880281 1.904281v82.117614c-2.08393 2.048-4.078035 3.826526-6.126035 5.802667z" fill="#38454F" p-id="2021"></path></svg>