<?xml version="1.0" standalone="no"?><!DOCTYPE svg PUBLIC "-//W3C//DTD SVG 1.1//EN" "http://www.w3.org/Graphics/SVG/1.1/DTD/svg11.dtd"><svg t="1692170323882" class="icon" viewBox="0 0 1024 1024" version="1.1" xmlns="http://www.w3.org/2000/svg" p-id="2661" xmlns:xlink="http://www.w3.org/1999/xlink" width="200" height="200"><path d="M489.692453 558.819952c-28.423562-32.771943-66.604466-56.104717-109.186779-64.377246a99.288027 99.288027 0 0 1-56.246128-32.436092l-56.953182-65.649943C149.758674 532.729668 63.869317 693.195522 32.440776 855.358306L4.989413 996.963501c-3.499916 18.029871 8.396264 29.926051 26.426135 26.426135l141.605195-27.451363c171.425188-33.231527 340.941331-127.305032 482.104618-255.334795l-165.432908-181.783526zM974.572257 9.739666L854.8327 32.966382c-156.594735 30.36796-311.616276 111.484704-444.878236 222.863351l65.261063 75.195169a99.376408 99.376408 0 0 1 24.198916 60.258658c2.191867 43.32472 19.92124 84.404545 48.362478 117.158811l162.657721 178.743194c143.107684-147.049509 249.236456-329.257267 284.978025-513.656892l23.20904-119.739557c5.815517-30.049785-13.999665-49.864968-44.04945-44.04945z" fill="#F3D55B" p-id="2662"></path><path d="M772.160437 210.878789h-35.352689v35.352689h-35.352689v35.352688h35.352689v35.352689h35.352689v-35.352689h35.352689v-35.352688h-35.352689zM913.571192 140.173411h-35.352689v-35.352689h-35.352688v35.352689h-35.352689v35.352689h35.352689v35.352689h35.352688v-35.352689h35.352689zM153.488383 829.550843h-35.352689v35.352689h-35.352689v35.352689h35.352689v35.352688h35.352689v-35.352688h35.352689v-35.352689h-35.352689zM259.546449 723.492777h-35.352689v35.352688h-35.352688v35.352689h35.352688v35.352689h35.352689v-35.352689h35.352689v-35.352689h-35.352689z" fill="#38454F" p-id="2663"></path><path d="M499.396766 391.28356c2.191867 43.32472 19.92124 84.404545 48.362479 117.158811l94.656824 104.025286c74.22297-93.242717 91.952344-202.641612 36.713767-257.880188-42.511608-42.511608-117.123458-41.857584-191.752984-5.479667 7.123567 13.239582 11.277508 27.61045 12.019914 42.175758zM489.692453 558.819952c-28.423562-32.771943-66.604466-56.104717-109.186779-64.377246a99.623877 99.623877 0 0 1-39.488953-17.464229c-60.594509 88.081224-71.85434 185.442529-20.805058 236.491812 57.377414 57.377414 173.228175 36.042066 268.680435-45.622645l-99.199645-109.027692z" fill="#38454F" p-id="2664"></path><path d="M853.418592 844.345943L547.759245 508.442371c-28.423562-32.771943-46.170612-73.834091-48.362479-117.158811a99.234998 99.234998 0 0 0-24.198915-60.258658L196.265136 9.580579A27.981653 27.981653 0 0 0 156.93527 6.787716L48.119694 101.214748a27.981653 27.981653 0 0 0-2.792863 39.329866l278.932715 321.444323a99.199645 99.199645 0 0 0 56.246128 32.436092c42.582314 8.272529 80.745541 31.62298 109.186779 64.377247l305.677024 335.903573 58.049115-50.359906z" fill="#F18D46" p-id="2665"></path><path d="M846.878345 992.544415l90.361472-78.412264a53.205797 53.205797 0 0 0 5.302904-74.806289 53.205797 53.205797 0 0 0-74.80629-5.302904l-90.361472 78.412264a53.205797 53.205797 0 0 0-5.302904 74.80629 53.170444 53.170444 0 0 0 74.80629 5.302903z" fill="#38454F" p-id="2666"></path></svg>