<?xml version="1.0" standalone="no"?><!DOCTYPE svg PUBLIC "-//W3C//DTD SVG 1.1//EN" "http://www.w3.org/Graphics/SVG/1.1/DTD/svg11.dtd"><svg t="1692170224000" class="icon" viewBox="0 0 1024 1024" version="1.1" xmlns="http://www.w3.org/2000/svg" p-id="2174" xmlns:xlink="http://www.w3.org/1999/xlink" width="200" height="200"><path d="M330.564267 451.805867c2.594133-0.1536 5.154133-0.392533 7.7824-0.392534 2.9184 0 5.768533 0.256 8.635733 0.443734-0.221867-3.549867-0.546133-7.0656-0.546133-10.666667 0-7.953067 0.750933-15.735467 1.8432-23.3984-3.310933-0.2048-6.587733-0.512-9.949867-0.512-3.072 0-6.075733 0.290133-9.1136 0.4608 1.092267 7.68 1.860267 15.4624 1.860267 23.432533 0.017067 3.584-0.290133 7.099733-0.512 10.632534zM295.662933 458.666667c0.768-5.7344 1.297067-11.554133 1.297067-17.493334 0-6.161067-0.580267-12.168533-1.399467-18.090666-67.2768 18.039467-117.640533 77.3632-122.231466 149.111466a130.679467 130.679467 0 0 0 34.901333-6.8608 131.6352 131.6352 0 0 1 87.432533-106.666666zM338.346667 714.24c-66.321067 0-121.156267-49.408-130.013867-113.322667a164.642133 164.642133 0 0 1-33.672533 5.341867c11.451733 80.196267 80.384 142.114133 163.6864 142.114133 83.319467 0 152.2688-61.934933 163.703466-142.148266a164.4544 164.4544 0 0 1-33.6384-5.512534c-8.772267 64.017067-63.675733 113.527467-130.065066 113.527467zM381.952 423.287467c-0.802133 5.870933-1.365333 11.810133-1.365333 17.885866 0 6.058667 0.5632 11.9808 1.348266 17.8176a131.584 131.584 0 0 1 86.4768 106.018134 130.389333 130.389333 0 0 0 34.952534 7.150933c-4.590933-71.441067-54.562133-130.577067-121.412267-148.872533z" fill="#F3D55B" p-id="2175"></path><path d="M642.218667 457.915733c0.699733-5.495467 1.194667-11.0592 1.194666-16.7424 0-6.314667-0.597333-12.4928-1.467733-18.568533-68.215467 17.442133-119.483733 77.243733-124.074667 149.691733a130.218667 130.218667 0 0 0 34.781867-6.212266 131.703467 131.703467 0 0 1 89.565867-108.168534zM728.507733 459.741867a131.584 131.584 0 0 1 84.3264 104.516266 130.850133 130.850133 0 0 0 35.054934 7.799467c-4.590933-70.741333-53.6576-129.4336-119.569067-148.292267a130.184533 130.184533 0 0 0-1.297067 17.408c0.017067 6.314667 0.6144 12.475733 1.4848 18.568534zM682.888533 714.24c-66.1504 0-120.8832-49.169067-129.9456-112.8448a164.061867 164.061867 0 0 1-33.723733 4.9664c11.485867 80.145067 80.401067 142.011733 163.6864 142.011733 83.3536 0 152.337067-61.986133 163.720533-142.250666a163.874133 163.874133 0 0 1-33.5872-5.888c-8.584533 64.238933-63.607467 114.005333-130.1504 114.005333zM677.0176 451.703467c1.962667-0.085333 3.8912-0.290133 5.870933-0.290134 3.566933 0 7.0656 0.256 10.564267 0.529067-0.238933-3.584-0.546133-7.133867-0.546133-10.769067 0-7.936 0.750933-15.6672 1.8432-23.296-3.925333-0.273067-7.850667-0.597333-11.844267-0.597333-2.440533 0-4.795733 0.256-7.202133 0.3584 1.109333 7.714133 1.877333 15.530667 1.877333 23.534933-0.034133 3.549867-0.341333 7.031467-0.5632 10.530134z" fill="#24AE5F" p-id="2176"></path><path d="M330.564267 451.805867a130.679467 130.679467 0 0 0-34.901334 6.8608 131.584 131.584 0 0 1-87.432533 106.666666 131.464533 131.464533 0 0 0-1.297067 17.493334c0 6.161067 0.580267 12.168533 1.399467 18.090666 67.259733-18.039467 117.640533-77.3632 122.231467-149.111466z" fill="#0096E6" p-id="2177"></path><path d="M173.346133 572.194133c-2.594133 0.1536-5.1712 0.392533-7.799466 0.392534-72.465067 0-131.413333-58.948267-131.413334-131.413334s58.948267-131.413333 131.413334-131.413333c66.321067 0 121.156267 49.408 130.013866 113.322667a164.642133 164.642133 0 0 1 33.672534-5.341867c-11.451733-80.196267-80.384-142.114133-163.6864-142.114133-91.2896 0-165.546667 74.274133-165.546667 165.546666s74.274133 165.546667 165.546667 165.546667c3.072 0 6.075733-0.290133 9.1136-0.4608a165.853867 165.853867 0 0 1-1.860267-23.432533c0-3.584 0.3072-7.099733 0.546133-10.632534z" fill="#0096E6" p-id="2178"></path><path d="M206.933333 582.826667c0-5.9392 0.529067-11.758933 1.297067-17.493334a130.56 130.56 0 0 1-34.901333 6.8608c-0.221867 3.5328-0.546133 7.048533-0.546134 10.632534 0 7.970133 0.768 15.752533 1.860267 23.432533a164.642133 164.642133 0 0 0 33.672533-5.341867 134.724267 134.724267 0 0 1-1.3824-18.090666z" fill="#F3D55B" p-id="2179"></path><path d="M296.96 441.173333c0 5.9392-0.529067 11.758933-1.297067 17.493334a130.56 130.56 0 0 1 34.901334-6.8608c0.221867-3.5328 0.546133-7.048533 0.546133-10.632534 0-7.970133-0.768-15.752533-1.860267-23.432533a164.642133 164.642133 0 0 0-33.672533 5.341867c0.8192 5.9392 1.3824 11.946667 1.3824 18.090666z" fill="#0096E6" p-id="2180"></path><path d="M512 309.76c66.1504 0 120.8832 49.169067 129.9456 112.8448a164.061867 164.061867 0 0 1 33.723733-4.9664c-11.485867-80.145067-80.401067-142.011733-163.669333-142.011733-83.319467 0-152.2688 61.934933-163.703467 142.148266a164.4544 164.4544 0 0 1 33.6384 5.512534c8.789333-64.017067 63.675733-113.527467 130.065067-113.527467zM677.0176 451.703467a130.218667 130.218667 0 0 0-34.781867 6.212266 131.652267 131.652267 0 0 1-89.565866 108.168534c-0.699733 5.495467-1.194667 11.0592-1.194667 16.7424 0 6.314667 0.597333 12.4928 1.467733 18.568533 68.215467-17.4592 119.483733-77.243733 124.074667-149.691733zM517.870933 572.296533c-1.962667 0.085333-3.8912 0.290133-5.870933 0.290134-2.9184 0-5.768533-0.256-8.635733-0.443734 0.221867 3.549867 0.546133 7.0656 0.546133 10.666667 0 7.953067-0.750933 15.735467-1.8432 23.3984 3.310933 0.2048 6.587733 0.512 9.949867 0.512 2.440533 0 4.795733-0.256 7.202133-0.3584a164.795733 164.795733 0 0 1-1.877333-23.534933c-0.017067-3.549867 0.3072-7.031467 0.529066-10.530134zM381.934933 458.990933a130.389333 130.389333 0 0 0-34.952533-7.150933c4.590933 71.441067 54.562133 130.56 121.412267 148.855467 0.802133-5.870933 1.365333-11.810133 1.365333-17.885867 0-6.058667-0.5632-11.9808-1.348267-17.8176a131.549867 131.549867 0 0 1-86.4768-106.001067z" fill="#38454F" p-id="2181"></path><path d="M503.364267 572.16a130.389333 130.389333 0 0 1-34.952534-7.150933c0.802133 5.8368 1.348267 11.758933 1.348267 17.8176 0 6.075733-0.5632 12.014933-1.365333 17.885866a164.4544 164.4544 0 0 0 33.6384 5.512534c1.092267-7.662933 1.8432-15.428267 1.8432-23.3984 0.017067-3.601067-0.290133-7.133867-0.512-10.666667z" fill="#38454F" p-id="2182"></path><path d="M346.9824 451.84c12.1856 0.802133 23.893333 3.242667 34.952533 7.150933a130.474667 130.474667 0 0 1-1.348266-17.8176c0-6.075733 0.5632-12.014933 1.365333-17.885866a164.4544 164.4544 0 0 0-33.6384-5.512534 165.188267 165.188267 0 0 0-1.8432 23.3984c-0.017067 3.601067 0.290133 7.133867 0.512 10.666667z" fill="#F3D55B" p-id="2183"></path><path d="M551.458133 582.826667c0-5.6832 0.477867-11.246933 1.194667-16.7424a130.218667 130.218667 0 0 1-34.781867 6.212266c-0.221867 3.498667-0.529067 6.980267-0.529066 10.530134 0 8.004267 0.768 15.8208 1.877333 23.534933a163.720533 163.720533 0 0 0 33.723733-4.9664 130.816 130.816 0 0 1-1.4848-18.568533z" fill="#24AE5F" p-id="2184"></path><path d="M643.413333 441.173333c0 5.6832-0.477867 11.246933-1.194666 16.7424a130.218667 130.218667 0 0 1 34.781866-6.212266c0.221867-3.498667 0.529067-6.980267 0.529067-10.530134 0-8.004267-0.768-15.8208-1.877333-23.534933-11.605333 0.494933-22.869333 2.184533-33.723734 4.9664 0.887467 6.0928 1.4848 12.253867 1.4848 18.568533z" fill="#38454F" p-id="2185"></path><path d="M858.453333 275.626667c-83.3536 0-152.337067 61.986133-163.720533 142.250666a163.874133 163.874133 0 0 1 33.5872 5.888c8.567467-64.238933 63.573333-114.005333 130.133333-114.005333 72.465067 0 131.413333 58.948267 131.413334 131.413333s-58.948267 131.413333-131.413334 131.413334c-3.566933 0-7.0656-0.256-10.564266-0.529067 0.238933 3.584 0.546133 7.133867 0.546133 10.769067 0 7.936-0.750933 15.6672-1.8432 23.296 3.925333 0.273067 7.850667 0.597333 11.844267 0.597333 91.2896 0 165.546667-74.274133 165.546666-165.546667s-74.257067-165.546667-165.5296-165.546666z" fill="#E64C3C" p-id="2186"></path><path d="M728.507733 459.741867a130.850133 130.850133 0 0 0-35.054933-7.799467c4.590933 70.741333 53.6576 129.4336 119.569067 148.292267 0.768-5.717333 1.297067-11.485867 1.297066-17.408 0-6.314667-0.597333-12.475733-1.467733-18.568534a131.584 131.584 0 0 1-84.343467-104.516266z" fill="#E64C3C" p-id="2187"></path><path d="M847.889067 572.0576a129.553067 129.553067 0 0 1-35.054934-7.799467c0.8704 6.075733 1.467733 12.253867 1.467734 18.568534 0 5.922133-0.529067 11.690667-1.297067 17.408 10.786133 3.089067 22.016 5.0688 33.5872 5.888 1.0752-7.6288 1.8432-15.377067 1.8432-23.296 0-3.6352-0.3072-7.185067-0.546133-10.769067z" fill="#E64C3C" p-id="2188"></path><path d="M693.4528 451.9424a129.553067 129.553067 0 0 1 35.054933 7.799467 130.816 130.816 0 0 1-1.467733-18.568534c0-5.922133 0.529067-11.690667 1.297067-17.408a163.874133 163.874133 0 0 0-33.5872-5.888 166.485333 166.485333 0 0 0-1.8432 23.296c0 3.6352 0.3072 7.185067 0.546133 10.769067z" fill="#24AE5F" p-id="2189"></path></svg>