<?xml version="1.0" standalone="no"?><!DOCTYPE svg PUBLIC "-//W3C//DTD SVG 1.1//EN" "http://www.w3.org/Graphics/SVG/1.1/DTD/svg11.dtd"><svg t="1692169912089" class="icon" viewBox="0 0 1065 1024" version="1.1" xmlns="http://www.w3.org/2000/svg" p-id="1580" xmlns:xlink="http://www.w3.org/1999/xlink" width="208.0078125" height="200"><path d="M593.878374 685.397333H471.764293a42.17548 42.17548 0 0 1-41.892423-46.987447l45.230829-393.449106a42.167154 42.167154 0 0 1 41.892423-37.346861h31.652423a42.167154 42.167154 0 0 1 41.884097 37.346861l45.23083 393.449106a42.183805 42.183805 0 0 1-41.884098 46.987447z" fill="#F2C500" p-id="1581"></path><path d="M635.762472 638.409886l-45.23083-393.449106a42.167154 42.167154 0 0 0-41.892422-37.346861h-15.817887v477.783414h61.057041a42.183805 42.183805 0 0 0 41.884098-46.987447z" fill="#F59D00" p-id="1582"></path><path d="M1064.626992 241.022959C1003.270244-48.344455 647.734114-78.648195 532.813008 164.822374 417.891902-78.65652 62.397398-48.552585 1.015675 241.014634c-8.874667 41.850797 42.866472 68.200065 71.788227 37.829724 59.774959-62.763707 148.987837-90.544911 234.887285-82.860748-177.743089 61.63148-258.23948 290.149984-104.164943 463.713821 28.030959 31.577496 80.438114 6.668488 73.061984-35.282211-21.004488-119.549919 44.306732-287.427642 249.697821-333.540944 2.331057-0.524488 4.678764-1.282081 6.535284-2.039674 3.08865 1.24878 7.026472 2.331057 10.556358 2.763967 153.849756 19.356098 272.450602 180.407154 245.676748 332.816651-7.39278 42.042276 45.155902 66.726504 73.061984 35.282211 154.449171-173.988423 72.845528-402.332098-104.156618-463.713821 86.016-7.700813 175.178927 20.171967 234.878959 82.860748 29.113236 30.570146 80.629593 3.862894 71.788228-37.829724z" fill="#65C6BB" p-id="1583"></path><path d="M1064.626992 241.022959C1003.286894-48.252878 647.784065-78.756423 532.813008 164.822374v124.020553a44.290081 44.290081 0 0 0 10.564683 2.763967c153.849756 19.347772 272.442276 180.407154 245.676748 332.816651-7.39278 42.042276 45.147577 66.726504 73.061984 35.290536 154.449171-173.996748 72.837203-402.340423-104.164943-463.722146 86.016-7.700813 175.187252 20.171967 234.887284 82.860748 29.104911 30.570146 80.621268 3.854569 71.779903-37.829724z" fill="#57BDB7" p-id="1584"></path><path d="M654.677333 802.857626l-23.210666-201.802927h-197.307317l-23.210667 201.802927a42.167154 42.167154 0 0 0 13.961366 36.414439c25.000585 22.103415 49.493333 0.940748 107.911284 0.616065 58.409626 0.324683 82.902374 21.48735 107.90296-0.616065a42.17548 42.17548 0 0 0 13.95304-36.414439z" fill="#F59D00" p-id="1585"></path><path d="M654.677333 802.857626l-23.210666-201.802927H532.813008v238.833431c58.417951 0.324683 82.902374 21.48735 107.911285-0.616065a42.167154 42.167154 0 0 0 13.95304-36.414439z" fill="#E87E04" p-id="1586"></path><path d="M833.577626 1018.796748H232.056715c-31.96878 0-52.365528-34.333138-36.988878-62.422374 52.232325-95.356878 142.610732-164.506016 247.966179-189.706407 56.861138-13.72826 120.049431-14.410927 179.682862 0.024976 105.24722 25.175415 195.625626 94.324553 247.849626 189.673106 15.351675 28.055935-4.961821 62.430699-36.988878 62.430699z m-239.940683-172.24013l0.216455 0.058276-0.216455-0.058276z m-4.037723-0.790894c0.366309 0.058276 0.732618 0.099902 1.098926 0.141528-0.366309-0.041626-0.732618-0.083252-1.098926-0.141528z" fill="#E87E04" p-id="1587"></path><path d="M870.566504 956.374374c-52.232325-95.356878-142.610732-164.506016-247.857951-189.681431A388.853593 388.853593 0 0 0 532.813008 756.094959v262.701789h300.764618c31.96878 0 52.365528-34.333138 36.988878-62.422374zM589.590894 845.774049z m4.037724 0.782569z" fill="#D55400" p-id="1588"></path></svg>