<?xml version="1.0" standalone="no"?><!DOCTYPE svg PUBLIC "-//W3C//DTD SVG 1.1//EN" "http://www.w3.org/Graphics/SVG/1.1/DTD/svg11.dtd"><svg t="1692155585858" class="icon" viewBox="0 0 1024 1024" version="1.1" xmlns="http://www.w3.org/2000/svg" p-id="5050" xmlns:xlink="http://www.w3.org/1999/xlink" width="200" height="200"><path d="M1024 512c0-130.133333-104.533333-234.666667-234.666667-234.666667s-234.666667 104.533333-234.666666 234.666667c0 57.6 19.2 108.8 53.333333 149.333333h-192c34.133333-40.533333 53.333333-91.733333 53.333333-149.333333 0-130.133333-104.533333-234.666667-234.666666-234.666667S0 381.866667 0 512s104.533333 234.666667 234.666667 234.666667h576v-2.133334c119.466667-10.666667 213.333333-110.933333 213.333333-232.533333zM85.333333 512c0-83.2 66.133333-149.333333 149.333334-149.333333s149.333333 66.133333 149.333333 149.333333-66.133333 149.333333-149.333333 149.333333-149.333333-66.133333-149.333334-149.333333z m704 149.333333c-83.2 0-149.333333-66.133333-149.333333-149.333333s66.133333-149.333333 149.333333-149.333333 149.333333 66.133333 149.333334 149.333333-66.133333 149.333333-149.333334 149.333333z" fill="#4CAF50" p-id="5051"></path></svg>